<mxfile host="app.diagrams.net" modified="2020-10-06T06:37:48.211Z" agent="5.0 (Windows)" etag="IdD2PMoqqe_p-0x1SKAO" version="13.7.7" type="github">
  <diagram id="Yr2dDtMbarlw3TAMI4d1" name="Page-1">
    <mxGraphModel dx="910" dy="487" grid="1" gridSize="10" guides="1" tooltips="1" connect="1" arrows="1" fold="1" page="1" pageScale="1" pageWidth="1169" pageHeight="827" math="0" shadow="0">
      <root>
        <mxCell id="0" />
        <mxCell id="1" parent="0" />
        <mxCell id="EOaqUx-Wi2leV6GHiZhB-1" value="Public Participation" style="swimlane;html=1;childLayout=stackLayout;resizeParent=1;resizeParentMax=0;horizontal=1;startSize=20;horizontalStack=0;" vertex="1" parent="1">
          <mxGeometry x="20" y="20" width="1130" height="680" as="geometry" />
        </mxCell>
        <mxCell id="EOaqUx-Wi2leV6GHiZhB-2" value="D - Procedure" style="swimlane;html=1;startSize=20;horizontal=0;" vertex="1" parent="EOaqUx-Wi2leV6GHiZhB-1">
          <mxGeometry y="20" width="1130" height="190" as="geometry" />
        </mxCell>
        <mxCell id="EOaqUx-Wi2leV6GHiZhB-5" value="Start" style="rounded=1;whiteSpace=wrap;html=1;" vertex="1" parent="EOaqUx-Wi2leV6GHiZhB-2">
          <mxGeometry x="110" y="20" width="90" height="40" as="geometry" />
        </mxCell>
        <mxCell id="EOaqUx-Wi2leV6GHiZhB-22" value="Participation in the public participation forum" style="whiteSpace=wrap;html=1;rounded=0;" vertex="1" parent="EOaqUx-Wi2leV6GHiZhB-2">
          <mxGeometry x="630" y="130" width="120" height="50" as="geometry" />
        </mxCell>
        <mxCell id="EOaqUx-Wi2leV6GHiZhB-8" value="Notification of a slated public participation" style="rounded=0;whiteSpace=wrap;html=1;" vertex="1" parent="EOaqUx-Wi2leV6GHiZhB-2">
          <mxGeometry x="95" y="130" width="120" height="50" as="geometry" />
        </mxCell>
        <mxCell id="EOaqUx-Wi2leV6GHiZhB-7" value="" style="edgeStyle=orthogonalEdgeStyle;rounded=0;orthogonalLoop=1;jettySize=auto;html=1;entryX=0.5;entryY=0;entryDx=0;entryDy=0;" edge="1" parent="EOaqUx-Wi2leV6GHiZhB-2" source="EOaqUx-Wi2leV6GHiZhB-5" target="EOaqUx-Wi2leV6GHiZhB-8">
          <mxGeometry relative="1" as="geometry">
            <mxPoint x="155" y="130" as="targetPoint" />
          </mxGeometry>
        </mxCell>
        <mxCell id="EOaqUx-Wi2leV6GHiZhB-3" value="Public Communications officer" style="swimlane;html=1;startSize=20;horizontal=0;" vertex="1" parent="EOaqUx-Wi2leV6GHiZhB-1">
          <mxGeometry y="210" width="1130" height="270" as="geometry" />
        </mxCell>
        <mxCell id="EOaqUx-Wi2leV6GHiZhB-12" value="" style="edgeStyle=orthogonalEdgeStyle;rounded=0;orthogonalLoop=1;jettySize=auto;html=1;" edge="1" parent="EOaqUx-Wi2leV6GHiZhB-3" source="EOaqUx-Wi2leV6GHiZhB-9" target="EOaqUx-Wi2leV6GHiZhB-11">
          <mxGeometry relative="1" as="geometry" />
        </mxCell>
        <mxCell id="EOaqUx-Wi2leV6GHiZhB-9" value="Secure suitable venues either at the Ward or Sub-County level" style="whiteSpace=wrap;html=1;rounded=0;" vertex="1" parent="EOaqUx-Wi2leV6GHiZhB-3">
          <mxGeometry x="95" y="50" width="120" height="60" as="geometry" />
        </mxCell>
        <mxCell id="EOaqUx-Wi2leV6GHiZhB-11" value="Prepare advert for placement in the media" style="whiteSpace=wrap;html=1;rounded=0;" vertex="1" parent="EOaqUx-Wi2leV6GHiZhB-3">
          <mxGeometry x="95" y="184" width="120" height="60" as="geometry" />
        </mxCell>
        <mxCell id="EOaqUx-Wi2leV6GHiZhB-15" value="Placement of advert both in print and broadcast media" style="whiteSpace=wrap;html=1;rounded=0;" vertex="1" parent="EOaqUx-Wi2leV6GHiZhB-3">
          <mxGeometry x="330" y="190" width="120" height="60" as="geometry" />
        </mxCell>
        <mxCell id="EOaqUx-Wi2leV6GHiZhB-4" value="Clerk" style="swimlane;html=1;startSize=20;horizontal=0;" vertex="1" parent="EOaqUx-Wi2leV6GHiZhB-1">
          <mxGeometry y="480" width="1130" height="200" as="geometry" />
        </mxCell>
        <mxCell id="EOaqUx-Wi2leV6GHiZhB-17" value="yes" style="text;html=1;strokeColor=none;fillColor=none;align=center;verticalAlign=middle;whiteSpace=wrap;rounded=0;" vertex="1" parent="EOaqUx-Wi2leV6GHiZhB-4">
          <mxGeometry x="310" y="60" width="40" height="20" as="geometry" />
        </mxCell>
        <mxCell id="EOaqUx-Wi2leV6GHiZhB-28" value="End" style="rounded=1;whiteSpace=wrap;html=1;" vertex="1" parent="EOaqUx-Wi2leV6GHiZhB-4">
          <mxGeometry x="980" y="64" width="90" height="40" as="geometry" />
        </mxCell>
        <mxCell id="EOaqUx-Wi2leV6GHiZhB-13" value="Approved for publication?" style="rhombus;whiteSpace=wrap;html=1;rounded=0;" vertex="1" parent="EOaqUx-Wi2leV6GHiZhB-4">
          <mxGeometry x="90" y="44" width="130" height="80" as="geometry" />
        </mxCell>
        <mxCell id="EOaqUx-Wi2leV6GHiZhB-20" value="Signing of the invitation letters" style="whiteSpace=wrap;html=1;rounded=0;" vertex="1" parent="EOaqUx-Wi2leV6GHiZhB-4">
          <mxGeometry x="480" y="54" width="120" height="60" as="geometry" />
        </mxCell>
        <mxCell id="EOaqUx-Wi2leV6GHiZhB-24" value="Submission of public views" style="whiteSpace=wrap;html=1;rounded=0;" vertex="1" parent="EOaqUx-Wi2leV6GHiZhB-4">
          <mxGeometry x="780" y="54" width="120" height="60" as="geometry" />
        </mxCell>
        <mxCell id="EOaqUx-Wi2leV6GHiZhB-27" value="" style="edgeStyle=orthogonalEdgeStyle;rounded=0;orthogonalLoop=1;jettySize=auto;html=1;entryX=0;entryY=0.5;entryDx=0;entryDy=0;" edge="1" parent="EOaqUx-Wi2leV6GHiZhB-4" source="EOaqUx-Wi2leV6GHiZhB-24" target="EOaqUx-Wi2leV6GHiZhB-28">
          <mxGeometry relative="1" as="geometry">
            <mxPoint x="980" y="84" as="targetPoint" />
          </mxGeometry>
        </mxCell>
        <mxCell id="EOaqUx-Wi2leV6GHiZhB-10" value="" style="edgeStyle=orthogonalEdgeStyle;rounded=0;orthogonalLoop=1;jettySize=auto;html=1;" edge="1" parent="EOaqUx-Wi2leV6GHiZhB-1" source="EOaqUx-Wi2leV6GHiZhB-8" target="EOaqUx-Wi2leV6GHiZhB-9">
          <mxGeometry relative="1" as="geometry" />
        </mxCell>
        <mxCell id="EOaqUx-Wi2leV6GHiZhB-14" value="" style="edgeStyle=orthogonalEdgeStyle;rounded=0;orthogonalLoop=1;jettySize=auto;html=1;" edge="1" parent="EOaqUx-Wi2leV6GHiZhB-1" source="EOaqUx-Wi2leV6GHiZhB-11" target="EOaqUx-Wi2leV6GHiZhB-13">
          <mxGeometry relative="1" as="geometry" />
        </mxCell>
        <mxCell id="EOaqUx-Wi2leV6GHiZhB-16" value="" style="edgeStyle=orthogonalEdgeStyle;rounded=0;orthogonalLoop=1;jettySize=auto;html=1;" edge="1" parent="EOaqUx-Wi2leV6GHiZhB-1" source="EOaqUx-Wi2leV6GHiZhB-13" target="EOaqUx-Wi2leV6GHiZhB-15">
          <mxGeometry relative="1" as="geometry" />
        </mxCell>
        <mxCell id="EOaqUx-Wi2leV6GHiZhB-23" value="" style="edgeStyle=orthogonalEdgeStyle;rounded=0;orthogonalLoop=1;jettySize=auto;html=1;" edge="1" parent="EOaqUx-Wi2leV6GHiZhB-1" source="EOaqUx-Wi2leV6GHiZhB-20" target="EOaqUx-Wi2leV6GHiZhB-22">
          <mxGeometry relative="1" as="geometry" />
        </mxCell>
        <mxCell id="EOaqUx-Wi2leV6GHiZhB-25" value="" style="edgeStyle=orthogonalEdgeStyle;rounded=0;orthogonalLoop=1;jettySize=auto;html=1;" edge="1" parent="EOaqUx-Wi2leV6GHiZhB-1" source="EOaqUx-Wi2leV6GHiZhB-22" target="EOaqUx-Wi2leV6GHiZhB-24">
          <mxGeometry relative="1" as="geometry" />
        </mxCell>
        <mxCell id="EOaqUx-Wi2leV6GHiZhB-21" value="" style="edgeStyle=orthogonalEdgeStyle;rounded=0;orthogonalLoop=1;jettySize=auto;html=1;" edge="1" parent="1" source="EOaqUx-Wi2leV6GHiZhB-18" target="EOaqUx-Wi2leV6GHiZhB-20">
          <mxGeometry relative="1" as="geometry" />
        </mxCell>
        <mxCell id="EOaqUx-Wi2leV6GHiZhB-18" value="Map out and invite stakeholders to be involved in the public participation" style="whiteSpace=wrap;html=1;rounded=0;" vertex="1" parent="1">
          <mxGeometry x="350" y="280" width="120" height="60" as="geometry" />
        </mxCell>
        <mxCell id="EOaqUx-Wi2leV6GHiZhB-19" value="" style="edgeStyle=orthogonalEdgeStyle;rounded=0;orthogonalLoop=1;jettySize=auto;html=1;" edge="1" parent="1" source="EOaqUx-Wi2leV6GHiZhB-15" target="EOaqUx-Wi2leV6GHiZhB-18">
          <mxGeometry relative="1" as="geometry" />
        </mxCell>
      </root>
    </mxGraphModel>
  </diagram>
</mxfile>
